<svg xmlns="http://www.w3.org/2000/svg">
  <symbol viewBox="0 -60 511.99996 511" id="telegram">
    <path d="m507.773438 7.292969c-5.015626-6.109375-13.332032-8.375-20.726563-5.65625l-469.65625 
    169.722656c-9.382813 3.410156-15.96875 11.679687-17.191406 21.582031-1.210938 9.855469 3.132812 
    19.417969 11.28125 24.921875l67.132812 45.828125c6.503907 4.441406 14.867188 4.917969 21.832031 
    1.242188l145.625-76.792969-113.496093 84.746094c-5.328125 3.980469-8.511719 10.328125-8.511719 
    16.976562v78.5c0 8.097657 4.441406 15.515625 11.589844 19.367188 7.160156 3.851562 15.808594 
    3.46875 22.609375-1.015625l51.003906-33.832032 50.15625 34.199219c4.394531 3.011719 9.628906 
    4.597657 14.910156 4.597657 1.785157 0 3.578125-.183594 5.34375-.550782 7.042969-1.46875 
    13.273438-5.820312 17.097657-11.9375l212.488281-350.382812c4.136719-6.746094 
    3.542969-15.378906-1.488281-21.515625zm-234.5625 352.863281-51.941407-35.417969c-3.613281-2.46875-7.777343-3.703125-11.9375-3.703125-4.070312 0-8.144531 
    1.183594-11.710937 3.550782l-43.542969 28.882812v-59.175781l200.410156-149.644531c8.949219-6.683594 
    11.203125-18.847657 5.238281-28.292969-5.96875-9.445313-17.917968-12.636719-27.796874-7.425781l-240.78125 
    126.972656-56.78125-38.761719 432.488281-156.289063zm0 0"/>
  </symbol>
  <symbol viewBox="0 0 24 24" id="vk">
    <path d="m19.915 13.028c-.388-.49-.277-.708 0-1.146.005-.005 3.208-4.431 3.538-5.932l.002-.001c.164-.547 
    0-.949-.793-.949h-2.624c-.668 0-.976.345-1.141.731 0 0-1.336 3.198-3.226 5.271-.61.599-.892.791-1.225.791-.164 
    0-.419-.192-.419-.739v-5.105c0-.656-.187-.949-.74-.949h-4.126c-.419 0-.668.306-.668.591 0 .622.945.765 1.043 
    2.515v3.797c0 .832-.151.985-.486.985-.892 0-3.057-3.211-4.34-6.886-.259-.713-.512-1.001-1.185-1.001h-2.625c-.749 
    0-.9.345-.9.731 0 .682.892 4.073 4.148 8.553 2.17 3.058 5.226 4.715 8.006 4.715 1.671 0 1.875-.368 1.875-1.001 
    0-2.922-.151-3.198.686-3.198.388 0 1.056.192 2.616 1.667 1.783 1.749 2.076 2.532 3.074 2.532h2.624c.748 0 
    1.127-.368.909-1.094-.499-1.527-3.871-4.668-4.023-4.878z"/>
  </symbol>
  <symbol viewBox="-110 1 511 511.99996" id="facebook">
    <path d="m180 512h-81.992188c-13.695312 0-24.835937-11.140625-24.835937-24.835938v-184.9375h-47.835937c-13.695313 
    0-24.835938-11.144531-24.835938-24.835937v-79.246094c0-13.695312 11.140625-24.835937 
    24.835938-24.835937h47.835937v-39.683594c0-39.347656 12.355469-72.824219 35.726563-96.804688 
    23.476562-24.089843 56.285156-36.820312 94.878906-36.820312l62.53125.101562c13.671875.023438 24.792968 11.164063 
    24.792968 24.835938v73.578125c0 13.695313-11.136718 24.835937-24.828124 24.835937l-42.101563.015626c-12.839844 
    0-16.109375 2.574218-16.808594 3.363281-1.152343 1.308593-2.523437 5.007812-2.523437 
    15.222656v31.351563h58.269531c4.386719 0 8.636719 1.082031 12.289063 3.121093 7.878906 4.402344 12.777343 
    12.726563 12.777343 21.722657l-.03125 79.246093c0 13.6875-11.140625 24.828125-24.835937 
    24.828125h-58.46875v184.941406c0 13.695313-11.144532 24.835938-24.839844 
    24.835938zm-76.8125-30.015625h71.632812v-193.195313c0-9.144531 7.441407-16.582031 
    16.582032-16.582031h66.726562l.027344-68.882812h-66.757812c-9.140626 
    0-16.578126-7.4375-16.578126-16.582031v-44.789063c0-11.726563 1.191407-25.0625 10.042969-35.085937 
    10.695313-12.117188 27.550781-13.515626 
    39.300781-13.515626l36.921876-.015624v-63.226563l-57.332032-.09375c-62.023437 0-100.566406 
    39.703125-100.566406 103.609375v53.117188c0 9.140624-7.4375 
    16.582031-16.578125 16.582031h-56.09375v68.882812h56.09375c9.140625 0 16.578125 7.4375 16.578125 
    16.582031zm163.0625-451.867187h.003906zm0 0"/>
  </symbol>
  <symbol viewBox="0 0 169.063 169.063" id="instagram">
    <path d="M122.406,0H46.654C20.929,0,0,20.93,0,46.655v75.752c0,25.726,20.929,46.655,46.654,46.655h75.752
		c25.727,0,46.656-20.93,46.656-46.655V46.655C169.063,20.93,148.133,0,122.406,0z M154.063,122.407
		c0,17.455-14.201,31.655-31.656,31.655H46.654C29.2,154.063,15,139.862,15,122.407V46.655C15,29.201,29.2,15,46.654,15h75.752
		c17.455,0,31.656,14.201,31.656,31.655V122.407z"/>
	<path d="M84.531,40.97c-24.021,0-43.563,19.542-43.563,43.563c0,24.02,19.542,43.561,43.563,43.561s43.563-19.541,43.563-43.561
		C128.094,60.512,108.552,40.97,84.531,40.97z M84.531,113.093c-15.749,0-28.563-12.812-28.563-28.561
		c0-15.75,12.813-28.563,28.563-28.563s28.563,12.813,28.563,28.563C113.094,100.281,100.28,113.093,84.531,113.093z"/>
	<path d="M129.921,28.251c-2.89,0-5.729,1.17-7.77,3.22c-2.051,2.04-3.23,4.88-3.23,7.78c0,2.891,1.18,5.73,3.23,7.78
		c2.04,2.04,4.88,3.22,7.77,3.22c2.9,0,5.73-1.18,7.78-3.22c2.05-2.05,3.22-4.89,3.22-7.78c0-2.9-1.17-5.74-3.22-7.78
		C135.661,29.421,132.821,28.251,129.921,28.251z"/>
</svg>